PathFileType	4	(X/Y/Z)	/Volumes/GoogleDrive/My Drive/Research/Stanford/Projects/Digital Athlete Project/Sprinting/Sprint Simulation/sprinter/subjects/JA1/experimental_data/TRC/static.trc
DataRate	CameraRate	NumFrames	NumMarkers	Units	OrigDataRate	OrigDataStartFrame	OrigNumFrames
250.000000	250.000000	6	57	mm	250.000000	404	646
Frame#	Time	C7			RSH			LSH			MAN			T7			LARM			LELB			LFOREARM			LWR			RARM			RELB			RFOREARM			RWR			RASI			LASI			SACR			P1			P2			P3			LTHLP			LTHLD			LTHAP			LTHAD			LLEPI			LPAT			LMEPI			LTIAP			LTIAD			LTILAT			LLMAL			LMMAL			LHEEL			LMFS			LMFL			LP1MT			LTOE			LP5MT			RTHLP			RTHLD			RTHAP			RTHAD			RLEPI			RPAT			RMEPI			RTIAP			RTIAD			RTILAT			RLMAL			RMMAL			RHEEL			RMFS			RMFL			RP1MT			RTOE			RP5MT			x56			x57			
		X1	Y1	Z1	X2	Y2	Z2	X3	Y3	Z3	X4	Y4	Z4	X5	Y5	Z5	X6	Y6	Z6	X7	Y7	Z7	X8	Y8	Z8	X9	Y9	Z9	X10	Y10	Z10	X11	Y11	Z11	X12	Y12	Z12	X13	Y13	Z13	X14	Y14	Z14	X15	Y15	Z15	X16	Y16	Z16	X17	Y17	Z17	X18	Y18	Z18	X19	Y19	Z19	X20	Y20	Z20	X21	Y21	Z21	X22	Y22	Z22	X23	Y23	Z23	X24	Y24	Z24	X25	Y25	Z25	X26	Y26	Z26	X27	Y27	Z27	X28	Y28	Z28	X29	Y29	Z29	X30	Y30	Z30	X31	Y31	Z31	X32	Y32	Z32	X33	Y33	Z33	X34	Y34	Z34	X35	Y35	Z35	X36	Y36	Z36	X37	Y37	Z37	X38	Y38	Z38	X39	Y39	Z39	X40	Y40	Z40	X41	Y41	Z41	X42	Y42	Z42	X43	Y43	Z43	X44	Y44	Z44	X45	Y45	Z45	X46	Y46	Z46	X47	Y47	Z47	X48	Y48	Z48	X49	Y49	Z49	X50	Y50	Z50	X51	Y51	Z51	X52	Y52	Z52	X53	Y53	Z53	X54	Y54	Z54	X55	Y55	Z55	X56	Y56	Z56	X57	Y57	Z57	
404	1.616000	-693.579895	1569.039673	309.059845	-649.511597	1559.229736	472.725952	-684.490479	1553.743286	152.611328	-536.712402	1484.116943	305.880463	-744.407104	1373.593628	315.739349	-703.633118	1375.352173	36.277485	-722.128967	1250.505005	-20.415987	-674.993347	1142.447632	-106.338051	-653.333252	1018.348389	-167.346832	-668.628540	1390.018677	584.450317	-698.628601	1265.359009	649.009033	-656.626160	1155.951904	733.776733	-638.703857	1034.027832	797.747559	-530.534546	1086.598267	398.775452	-555.373474	1090.679199	183.075714	-726.947083	1134.582275	316.068848	-747.758362	1108.687378	265.012665	-738.727051	1104.927002	371.060516	-772.352722	1050.952759	318.289734	-665.942749	798.727539	105.008926	-662.748291	684.645386	111.307701	-533.175476	783.146484	171.041504	-554.301697	674.188232	177.759903	-658.022278	558.853699	121.612206	-578.054443	560.057190	183.417923	-659.109985	541.971558	247.420135	-643.038818	381.641235	187.605148	-659.424438	243.689819	181.106689	-694.293030	320.740356	107.815666	-701.695190	102.527451	121.599060	-680.547913	113.063560	214.479019	-765.526306	61.244377	166.045853	-600.508179	94.598915	169.671112	-628.633423	69.584351	107.096214	-553.216919	46.393982	202.779129	-497.801727	58.477966	164.322083	-576.812988	35.903111	78.701614	-630.972473	825.635315	512.724426	-634.097107	711.883789	507.760651	-526.843201	782.768433	423.033295	-547.675171	686.453491	419.682404	-651.050537	560.007141	488.818634	-582.773254	550.841980	425.555450	-683.249878	544.016052	365.194763	-657.206360	344.028168	419.088501	-672.387390	217.963867	413.867157	-693.001465	338.879822	505.766754	-695.124329	103.120201	481.756195	-684.262390	112.785225	387.823547	-765.354858	59.590363	441.218292	-592.413696	97.946983	432.170685	-629.317688	69.667114	491.036102	-554.270264	49.071823	388.804596	-493.850342	58.713341	426.080902	-569.826965	40.659477	515.932800	-642.324524	955.274902	-198.354553	-628.681030	965.843567	833.522278
405	1.620000	-693.548096	1569.076904	309.046600	-649.500061	1559.218018	472.701019	-684.434875	1553.692749	152.595810	-536.694580	1484.221924	306.048828	-744.378357	1373.650024	315.748352	-703.610535	1375.403687	36.222740	-722.081055	1250.501587	-20.385092	-674.929260	1142.445312	-106.423294	-653.265320	1018.336731	-167.386703	-668.594849	1390.013550	584.415161	-698.593323	1265.365967	648.972900	-656.491943	1155.950439	733.765442	-638.629517	1034.036255	797.724426	-530.465454	1086.557617	398.770844	-555.326965	1090.661987	183.133881	-727.040222	1134.579712	316.071167	-747.735046	1108.702026	265.020294	-738.750916	1105.006714	370.987640	-772.579712	1050.953979	318.671326	-665.930420	798.737366	104.995262	-662.698486	684.621643	111.308197	-533.137695	783.128540	170.923218	-554.244080	674.180725	177.800583	-657.849792	558.767456	121.383194	-578.012634	560.017212	183.469208	-659.038818	541.952637	247.391663	-642.962585	381.623230	187.629089	-659.382874	243.713623	181.004333	-694.273010	320.731201	107.830612	-701.654297	102.554649	121.578865	-680.571045	113.032585	214.443726	-765.516235	61.189396	166.009323	-600.528809	94.534393	169.646851	-628.633606	69.559654	107.069756	-553.319519	46.397148	202.769760	-497.807404	58.515362	164.300217	-576.704163	35.929436	78.583298	-630.962158	825.662354	512.711487	-634.137878	711.867859	507.634521	-526.828674	782.793579	423.045868	-547.729736	686.386658	419.606628	-651.047729	560.007874	488.871857	-582.770447	550.835754	425.615540	-683.168091	544.013000	365.160645	-657.144653	344.024506	419.061218	-672.415100	218.062210	413.947021	-692.946533	338.890869	505.823212	-695.027222	103.135315	481.785919	-683.930420	112.835556	387.471710	-765.344604	59.494522	441.191376	-592.329834	97.913918	432.203400	-629.314636	69.658211	491.027496	-554.255249	49.035820	388.713745	-493.827972	58.780949	426.180481	-569.819275	40.674980	515.953674	-642.254639	955.258545	-198.371368	-628.640198	965.857605	833.492554
406	1.624000	-688.795410	1567.495361	307.462555	-649.448792	1559.234863	472.671722	-684.411011	1553.752319	152.513474	-536.638672	1484.214600	306.027069	-744.338562	1373.622681	315.719971	-703.544556	1375.393066	36.245659	-721.975647	1250.436768	-20.357243	-674.870605	1142.419922	-106.411659	-653.216003	1018.301453	-167.389740	-668.563721	1390.061523	584.365967	-698.428162	1265.509033	648.976135	-656.295044	1155.947632	734.032349	-638.554749	1034.044434	797.773010	-530.462585	1086.580933	398.782227	-555.333008	1090.672729	183.161133	-726.937622	1134.564697	316.094025	-747.753113	1108.744141	264.942657	-738.728088	1104.939453	370.971924	-772.347168	1050.938232	318.290253	-665.849792	798.716248	105.011208	-662.656494	684.602478	111.289223	-533.098267	783.154968	171.078857	-554.201111	674.216370	177.843689	-657.856567	558.782166	121.508575	-578.004761	560.003723	183.540161	-659.060547	541.948547	247.396332	-642.952820	381.669189	187.706696	-659.277832	243.711838	180.883698	-694.262024	320.711212	107.858833	-701.646118	102.588127	121.578293	-680.524536	113.071205	214.505493	-765.542480	61.226994	166.153748	-600.523438	94.527420	169.629608	-628.636475	69.558670	107.061401	-553.275757	46.350269	202.738861	-497.815491	58.521236	164.333771	-576.734619	35.888721	78.634155	-630.923462	825.633911	512.692444	-634.074280	711.871704	507.742706	-526.775635	782.793640	423.071594	-547.657776	686.477478	419.716309	-651.037292	560.030273	488.791046	-582.694519	550.832214	425.520874	-683.193726	544.016113	365.194366	-657.185669	344.004883	419.117645	-672.388916	218.035873	413.869415	-692.895386	338.885590	505.776001	-694.997070	103.214493	481.821106	-684.158386	112.779404	387.691956	-765.315857	59.402031	441.089294	-592.348938	97.928314	432.232819	-629.273254	69.705055	491.020325	-554.245605	49.074894	388.721710	-493.819305	58.787910	426.179047	-569.833496	40.660744	515.919678	-642.210022	955.218201	-198.381866	-628.633728	965.871948	833.419067
407	1.628000	-688.585205	1567.307373	307.344757	-649.445801	1559.231323	472.710510	-684.337280	1553.726318	152.475098	-536.624451	1484.235596	305.938385	-744.322449	1373.627563	315.609497	-703.508240	1375.380371	36.206455	-721.933655	1250.464722	-20.412182	-674.950012	1142.457886	-106.240532	-653.221802	1018.342346	-167.311447	-668.525757	1390.064209	584.417419	-698.535828	1265.394409	648.943481	-656.339783	1155.946655	733.845337	-638.521667	1034.055542	797.741150	-530.428711	1086.552002	398.819244	-555.263367	1090.644165	183.111786	-726.879028	1134.537231	316.090942	-747.711487	1108.706177	265.006653	-738.727295	1104.990967	371.021820	-772.335815	1050.938477	318.277496	-665.844910	798.695740	105.005836	-662.605652	684.616638	111.287704	-533.102783	783.123596	171.072495	-554.093750	674.144531	177.666367	-657.824097	558.774841	121.491112	-577.920227	560.022949	183.432205	-658.965088	541.968384	247.392792	-642.928711	381.615295	187.703705	-659.328186	243.721146	181.032837	-694.187927	320.721649	107.799698	-701.695679	102.543419	121.583344	-680.520325	113.005936	214.434128	-765.541687	61.259308	166.014374	-600.534546	94.513016	169.607727	-628.618713	69.559761	107.082634	-553.270142	46.373856	202.762375	-497.682159	58.561348	164.052826	-576.785400	35.858418	78.685104	-630.914185	825.644043	512.694214	-634.089478	711.890076	507.745819	-526.692139	782.751160	422.874054	-547.657288	686.420715	419.597382	-651.018005	560.046753	488.816681	-582.663086	550.864624	425.635529	-683.176453	543.977600	365.177216	-657.085938	344.033234	419.089386	-672.392761	218.058121	413.909485	-692.943420	338.880463	505.758087	-695.082947	103.135475	481.716034	-684.083923	112.834236	387.652649	-765.342590	59.510620	441.243591	-592.457581	97.932495	432.193634	-629.237305	69.679131	491.039734	-554.280823	49.112354	388.799164	-493.897552	58.706444	426.172394	-569.784851	40.701279	515.994141	-642.178406	955.260620	-198.350754	-628.557190	965.889648	833.473938
408	1.632000	-688.577515	1567.320190	307.364380	-649.401978	1559.239502	472.656036	-684.318604	1553.674805	152.575470	-536.588745	1484.220703	306.011902	-744.307129	1373.573120	315.486816	-703.479919	1375.387085	36.182121	-721.932251	1250.400635	-20.241732	-674.841187	1142.465820	-106.379051	-653.154175	1018.319031	-167.343658	-668.502014	1390.052734	584.355469	-698.401184	1265.470215	648.935303	-656.233093	1155.991455	733.965942	-638.433716	1034.088013	797.800537	-530.396118	1086.548828	398.772217	-555.272522	1090.678101	183.284302	-726.871521	1134.571777	316.070374	-747.684692	1108.710693	264.960205	-738.721375	1104.989136	370.990265	-772.257446	1050.921265	318.318390	-665.773987	798.704468	104.995338	-662.579773	684.611572	111.271790	-533.039124	783.113037	171.028488	-554.100647	674.155701	177.743271	-657.791748	558.754639	121.640915	-577.861145	560.022705	183.430115	-658.944519	541.904541	247.406143	-642.897217	381.656311	187.733246	-659.260071	243.681000	180.861053	-694.136841	320.714111	107.816849	-701.707092	102.545021	121.639359	-680.567749	113.053207	214.418579	-765.497620	61.204178	165.901260	-600.498108	94.559769	169.606171	-628.619995	69.537712	107.097031	-553.258301	46.390408	202.802109	-497.648895	58.528679	164.022278	-576.711731	35.941868	78.574150	-630.889709	825.628845	512.700439	-634.042297	711.856873	507.759827	-526.716858	782.777222	423.007965	-547.657410	686.412842	419.566437	-650.998840	560.052124	488.911926	-582.696960	550.907532	425.731567	-683.106323	544.014648	365.207092	-657.076416	344.037079	419.055695	-672.391174	217.975876	413.860840	-692.943787	338.883881	505.750946	-695.074768	103.134758	481.703400	-684.206482	112.784370	387.724915	-765.377747	59.455402	441.137146	-592.319031	97.949699	432.214783	-629.304321	69.627800	490.960876	-554.181335	49.028824	388.652557	-493.822266	58.736481	426.099091	-569.841675	40.663574	515.913086	-642.131775	955.221436	-198.328918	-628.479675	965.915344	833.499146
409	1.636000	-688.511658	1567.353271	307.275574	-649.377808	1559.224731	472.626953	-684.267395	1553.722046	152.526703	-536.553772	1484.252075	306.009216	-744.277710	1373.616943	315.612152	-703.423035	1375.396606	36.114254	-721.819092	1250.435425	-20.392361	-674.692810	1142.428833	-106.539688	-653.058838	1018.289856	-167.390121	-668.491577	1390.092041	584.366211	-698.384094	1265.466675	648.992188	-656.229492	1155.988037	733.864014	-638.397461	1034.104614	797.748352	-530.358826	1086.560425	398.825897	-555.245239	1090.676392	183.207642	-726.863159	1134.554199	316.094482	-747.681213	1108.730835	264.917114	-738.617920	1104.956299	371.025024	-772.222107	1050.925293	318.261169	-665.744324	798.698486	104.998260	-662.501099	684.611328	111.243294	-533.015442	783.135376	171.070969	-554.026978	674.161255	177.730331	-657.746826	558.800720	121.563301	-577.801147	560.004639	183.482117	-658.899963	541.913574	247.356644	-642.865540	381.634369	187.721588	-659.196411	243.697968	180.923538	-694.132202	320.758881	107.824104	-701.807861	102.491943	121.710510	-680.580261	113.050407	214.406067	-765.511230	61.252625	166.153580	-600.448425	94.510956	169.647400	-628.624634	69.598465	107.145340	-553.324524	46.366844	202.728638	-497.738922	58.528996	164.193115	-576.745789	35.942982	78.631210	-630.892090	825.644165	512.696350	-634.024597	711.873047	507.699585	-526.711426	782.758850	423.034760	-547.614563	686.393555	419.631836	-651.001526	559.973816	488.751648	-582.726868	550.867493	425.795685	-683.110718	544.001038	365.198120	-657.021179	344.032349	419.054443	-672.413391	218.043503	413.961609	-692.963562	338.816895	505.749542	-695.037476	103.203606	481.684845	-684.201416	112.796783	387.750885	-765.377563	59.441486	441.087463	-592.366333	97.954910	432.234528	-629.255676	69.688522	491.004913	-554.246765	49.000366	388.701691	-493.787537	58.747887	426.248718	-569.829895	40.662682	515.952515	-642.063354	955.196228	-198.317352	-628.425171	965.943115	833.474731
